<svg width="170" height="30" viewBox="0 0 170 30" fill="none" xmlns="http://www.w3.org/2000/svg">
<path d="M42.5142 23.24C41.3942 23.24 40.4102 23.032 39.5622 22.616C38.7302 22.184 38.0822 21.584 37.6182 20.816C37.1542 20.032 36.9222 19.112 36.9222 18.056V14.744C36.9222 13.672 37.1542 12.752 37.6182 11.984C38.0822 11.216 38.7302 10.624 39.5622 10.208C40.4102 9.776 41.3942 9.56 42.5142 9.56C44.1782 9.56 45.5062 9.992 46.4982 10.856C47.4902 11.704 48.0102 12.864 48.0582 14.336H45.0582C45.0102 13.648 44.7622 13.12 44.3142 12.752C43.8822 12.368 43.2822 12.176 42.5142 12.176C41.7142 12.176 41.0822 12.4 40.6182 12.848C40.1542 13.28 39.9222 13.904 39.9222 14.72V18.056C39.9222 18.872 40.1542 19.504 40.6182 19.952C41.0822 20.4 41.7142 20.624 42.5142 20.624C43.2822 20.624 43.8822 20.44 44.3142 20.072C44.7622 19.688 45.0102 19.152 45.0582 18.464H48.0582C48.0102 19.936 47.4902 21.104 46.4982 21.968C45.5062 22.816 44.1782 23.24 42.5142 23.24ZM51.5528 23V5.48H54.5528V14.984H56.6408L59.8568 9.8H63.2168L59.2328 16.184L63.2888 23H59.8568L56.6408 17.528H54.5528V23H51.5528ZM71.2474 23.24C70.1274 23.24 69.1514 23.024 68.3194 22.592C67.4874 22.16 66.8394 21.56 66.3754 20.792C65.9274 20.008 65.7034 19.096 65.7034 18.056V14.744C65.7034 13.704 65.9274 12.8 66.3754 12.032C66.8394 11.248 67.4874 10.64 68.3194 10.208C69.1514 9.776 70.1274 9.56 71.2474 9.56C72.3514 9.56 73.3114 9.776 74.1274 10.208C74.9594 10.64 75.5994 11.248 76.0474 12.032C76.5114 12.8 76.7434 13.704 76.7434 14.744V17.12H68.6074V18.056C68.6074 18.984 68.8314 19.688 69.2794 20.168C69.7274 20.632 70.3914 20.864 71.2714 20.864C71.9434 20.864 72.4874 20.752 72.9034 20.528C73.3194 20.288 73.5834 19.944 73.6954 19.496H76.6474C76.4234 20.632 75.8154 21.544 74.8234 22.232C73.8474 22.904 72.6554 23.24 71.2474 23.24ZM73.8394 15.44V14.72C73.8394 13.808 73.6234 13.112 73.1914 12.632C72.7594 12.136 72.1114 11.888 71.2474 11.888C70.3834 11.888 69.7274 12.136 69.2794 12.632C68.8314 13.128 68.6074 13.832 68.6074 14.744V15.248L74.0554 15.2L73.8394 15.44ZM87.0541 23C85.7901 23 84.7981 22.648 84.0781 21.944C83.3741 21.24 83.0221 20.272 83.0221 19.04V12.512H79.4461V9.8H83.0221V6.08H86.0461V9.8H91.1101V12.512H86.0461V19.04C86.0461 19.872 86.4541 20.288 87.2701 20.288H90.8701V23H87.0541ZM100.005 23.24C99.3167 23.24 98.7647 23.04 98.3487 22.64C97.9487 22.24 97.7487 21.696 97.7487 21.008C97.7487 20.32 97.9487 19.776 98.3487 19.376C98.7647 18.96 99.3167 18.752 100.005 18.752C100.693 18.752 101.237 18.96 101.637 19.376C102.053 19.776 102.261 20.32 102.261 21.008C102.261 21.696 102.053 22.24 101.637 22.64C101.237 23.04 100.693 23.24 100.005 23.24ZM113.891 23.216C112.883 23.216 112.003 23.056 111.251 22.736C110.499 22.416 109.907 21.976 109.475 21.416C109.059 20.84 108.835 20.168 108.803 19.4H111.803C111.835 19.816 112.035 20.152 112.403 20.408C112.787 20.664 113.283 20.792 113.891 20.792H114.947C115.683 20.792 116.235 20.648 116.603 20.36C116.971 20.072 117.155 19.68 117.155 19.184C117.155 18.72 116.987 18.36 116.651 18.104C116.331 17.832 115.827 17.656 115.139 17.576L113.507 17.336C112.003 17.128 110.899 16.728 110.195 16.136C109.491 15.544 109.139 14.656 109.139 13.472C109.139 12.24 109.555 11.288 110.387 10.616C111.219 9.928 112.443 9.584 114.059 9.584H114.971C116.443 9.584 117.619 9.912 118.499 10.568C119.379 11.224 119.851 12.104 119.915 13.208H116.915C116.867 12.856 116.667 12.568 116.315 12.344C115.979 12.12 115.531 12.008 114.971 12.008H114.059C113.371 12.008 112.867 12.136 112.547 12.392C112.243 12.632 112.091 12.992 112.091 13.472C112.091 13.92 112.227 14.256 112.499 14.48C112.771 14.688 113.211 14.84 113.819 14.936L115.523 15.176C117.091 15.4 118.243 15.824 118.979 16.448C119.731 17.056 120.107 17.96 120.107 19.16C120.107 20.44 119.667 21.44 118.787 22.16C117.923 22.864 116.643 23.216 114.947 23.216H113.891ZM128.81 23.24C127.69 23.24 126.714 23.024 125.882 22.592C125.05 22.16 124.402 21.56 123.938 20.792C123.49 20.008 123.266 19.096 123.266 18.056V14.744C123.266 13.704 123.49 12.8 123.938 12.032C124.402 11.248 125.05 10.64 125.882 10.208C126.714 9.776 127.69 9.56 128.81 9.56C129.914 9.56 130.874 9.776 131.69 10.208C132.522 10.64 133.162 11.248 133.61 12.032C134.074 12.8 134.306 13.704 134.306 14.744V17.12H126.17V18.056C126.17 18.984 126.394 19.688 126.842 20.168C127.29 20.632 127.954 20.864 128.834 20.864C129.506 20.864 130.05 20.752 130.466 20.528C130.882 20.288 131.146 19.944 131.258 19.496H134.21C133.986 20.632 133.378 21.544 132.386 22.232C131.41 22.904 130.218 23.24 128.81 23.24ZM131.402 15.44V14.72C131.402 13.808 131.186 13.112 130.754 12.632C130.322 12.136 129.674 11.888 128.81 11.888C127.946 11.888 127.29 12.136 126.842 12.632C126.394 13.128 126.17 13.832 126.17 14.744V15.248L131.618 15.2L131.402 15.44ZM143.249 23.24C142.129 23.24 141.145 23.032 140.297 22.616C139.465 22.184 138.817 21.584 138.353 20.816C137.889 20.032 137.657 19.112 137.657 18.056V14.744C137.657 13.672 137.889 12.752 138.353 11.984C138.817 11.216 139.465 10.624 140.297 10.208C141.145 9.776 142.129 9.56 143.249 9.56C144.913 9.56 146.241 9.992 147.233 10.856C148.225 11.704 148.745 12.864 148.793 14.336H145.793C145.745 13.648 145.497 13.12 145.049 12.752C144.617 12.368 144.017 12.176 143.249 12.176C142.449 12.176 141.817 12.4 141.353 12.848C140.889 13.28 140.657 13.904 140.657 14.72V18.056C140.657 18.872 140.889 19.504 141.353 19.952C141.817 20.4 142.449 20.624 143.249 20.624C144.017 20.624 144.617 20.44 145.049 20.072C145.497 19.688 145.745 19.152 145.793 18.464H148.793C148.745 19.936 148.225 21.104 147.233 21.968C146.241 22.816 144.913 23.24 143.249 23.24ZM159.007 23C157.743 23 156.751 22.648 156.031 21.944C155.327 21.24 154.975 20.272 154.975 19.04V12.512H151.399V9.8H154.975V6.08H157.999V9.8H163.063V12.512H157.999V19.04C157.999 19.872 158.407 20.288 159.223 20.288H162.823V23H159.007Z" fill="white"/>
<path d="M26.4611 15.1706C24.1683 15.1706 22.303 13.4165 22.303 11.2604C22.303 9.10427 24.1683 7.35016 26.4611 7.35016C28.7538 7.35016 30.6192 9.10427 30.6192 11.2604C30.6192 13.4165 28.7538 15.1706 26.4611 15.1706ZM26.4611 8.33817C24.7837 8.33817 23.419 9.64905 23.419 11.2604C23.419 12.8717 24.7837 14.1826 26.4611 14.1826C28.1384 14.1826 29.5031 12.8717 29.5031 11.2604C29.5031 9.64905 28.1384 8.33817 26.4611 8.33817Z" fill="#00BFA6"/>
<path d="M26.4703 15.0774C24.1724 15.0774 22.303 13.2656 22.303 11.0387C22.303 8.81173 24.1724 7 26.4703 7C28.7681 7 30.6376 8.81173 30.6376 11.0387C30.6376 13.2656 28.7681 15.0774 26.4703 15.0774ZM26.4703 8.02047C24.7892 8.02047 23.4215 9.37441 23.4215 11.0387C23.4215 12.7029 24.7892 14.0569 26.4703 14.0569C28.1514 14.0569 29.519 12.7029 29.519 11.0387C29.519 9.37441 28.1514 8.02047 26.4703 8.02047Z" fill="#00BFA6"/>
<path d="M30.5177 23H22.6252C21.9292 22.9993 21.2619 22.7468 20.7698 22.2978C20.2776 21.8488 20.0008 21.24 20 20.605V13.5421C20.0005 13.1074 20.1901 12.6906 20.527 12.3832C20.8639 12.0758 21.3207 11.9029 21.7972 11.9024H31.3456C31.8221 11.9029 32.2789 12.0758 32.6159 12.3832C32.9528 12.6906 33.1423 13.1074 33.1429 13.5421V20.605C33.1421 21.24 32.8652 21.8488 32.3731 22.2978C31.881 22.7468 31.2137 22.9993 30.5177 23Z" fill="white"/>
<path d="M28.0657 16.5749C28.0659 16.3254 27.9932 16.0805 27.8551 15.8652C27.7171 15.6499 27.5186 15.4721 27.2802 15.3501C27.0417 15.228 26.7719 15.1662 26.4986 15.1709C26.2252 15.1756 25.9582 15.2467 25.725 15.3769C25.4918 15.5071 25.3008 15.6916 25.1718 15.9115C25.0427 16.1314 24.9803 16.3787 24.9908 16.628C25.0014 16.8772 25.0846 17.1194 25.2318 17.3295C25.3791 17.5397 25.5851 17.7102 25.8286 17.8236V20.0189H27.2268V17.8236C27.4792 17.7062 27.6911 17.5275 27.8392 17.3071C27.9872 17.0868 28.0656 16.8333 28.0657 16.5749Z" fill="white"/>
<path d="M28.0657 16.5749C28.0659 16.3254 27.9932 16.0805 27.8551 15.8652C27.7171 15.6499 27.5186 15.4721 27.2802 15.3501C27.0417 15.228 26.7719 15.1662 26.4986 15.1709C26.2252 15.1756 25.9582 15.2467 25.725 15.3769C25.4918 15.5071 25.3008 15.6916 25.1718 15.9115C25.0427 16.1314 24.9803 16.3787 24.9908 16.628C25.0014 16.8772 25.0846 17.1194 25.2318 17.3295C25.3791 17.5397 25.5851 17.7102 25.8286 17.8236V20.0189H27.2268V17.8236C27.4792 17.7062 27.6911 17.5275 27.8392 17.3071C27.9872 17.0868 28.0656 16.8333 28.0657 16.5749Z" fill="#2F2E41"/>
<path d="M5.65647 23V5.48H11.2005C12.3685 5.48 13.3765 5.696 14.2245 6.128C15.0885 6.56 15.7605 7.168 16.2405 7.952C16.7205 8.72 16.9605 9.632 16.9605 10.688C16.9605 11.84 16.6645 12.856 16.0725 13.736C15.4965 14.616 14.7125 15.24 13.7205 15.608L17.2005 23H13.8405L10.7925 16.04H8.65647V23H5.65647ZM8.65647 13.4H11.2005C12.0485 13.4 12.7125 13.168 13.1925 12.704C13.6725 12.24 13.9125 11.6 13.9125 10.784C13.9125 9.952 13.6725 9.304 13.1925 8.84C12.7125 8.36 12.0485 8.12 11.2005 8.12H8.65647V13.4Z" fill="white"/>
</svg>
