<svg width="13" height="20" viewBox="0 0 13 20" fill="none" xmlns="http://www.w3.org/2000/svg">
<path d="M12.2984 6.10271C12.2992 5.13618 12.0172 4.18693 11.4815 3.35271C10.9457 2.51849 10.1755 1.82945 9.25026 1.35657C8.32501 0.883689 7.27811 0.644062 6.2174 0.662351C5.15669 0.68064 4.12049 0.95618 3.21553 1.46062C2.31058 1.96506 1.56959 2.68015 1.06885 3.53225C0.568112 4.38434 0.32574 5.34264 0.366693 6.30845C0.407645 7.27426 0.730442 8.21266 1.30184 9.02702C1.87324 9.84138 2.67258 10.5023 3.61755 10.9416V19.4485H9.04309V10.9416C10.0226 10.4868 10.845 9.79417 11.4195 8.94023C11.994 8.08629 12.2981 7.10428 12.2984 6.10271Z" fill="#2F2E41"/>
</svg>
